<svg xmlns="http://www.w3.org/2000/svg" fill="none" width="331.8" height="193.5686470049734" viewBox="0 0 394 80">

<path xmlns="http://www.w3.org/2000/svg" d="M8.352,13.811c-0.131,0.85-0.83,1.426-1.76,1.482v1.139H5.706v-1.229c-0.357-0.098-0.663-0.258-0.897-0.504  c-0.533-0.555-0.52-1.258-0.518-1.336l0.443,0.018l0.442,0.014c0,0.004-0.005,0.412,0.276,0.699  c0.211,0.215,0.546,0.324,0.996,0.324c0.555,0,0.957-0.289,1.026-0.74c0.065-0.426-0.2-1.029-1.159-1.328  c-0.281-0.088-0.525-0.18-0.738-0.275c-0.969-0.486-1.449-1.363-1.24-2.242c0.158-0.67,0.676-1.139,1.368-1.295V7.348h0.886v1.168  c1.236,0.189,1.609,1.271,1.621,1.875l-0.885,0.018c-0.006-0.172-0.09-1.047-1.115-1.047c-0.629,0-0.936,0.35-1.014,0.674  c-0.084,0.354,0.064,0.891,0.76,1.24c0.168,0.076,0.38,0.152,0.622,0.23C7.979,11.939,8.478,12.977,8.352,13.811z"></path>

</svg>

